# xmcd
#
# Track frame offsets:
#	150
#	16750
#	31462
#	40750
#	53600
#	62712
#	74850
#	83625
#	93100
#	102825
#
# Disc length: 1579 seconds
#
# Revision: 552882529
# Processed by: cddbd v1.5.2PL0 Copyright (c) Steve Scherf et al.
# Submitted via: EZCDAudioConverter 8.0.2.1
#
DISCID=7606290a
DTITLE=华纳群星 - 今年会更好 华纳群星贺岁
DYEAR=1999
DGENRE=Contemporary Pop
TTITLE0=林子祥 - 财神到
TTITLE1=华纳群星 - 祝福你
TTITLE2=曾航生/何婉盈 - 新春颂献
TTITLE3=刘锡明/蔡立儿 - 迎春花 
TTITLE4=张卫健/吕方 - 祝新岁
TTITLE5=杜德伟/叶倩文 - 欢乐年年
TTITLE6=钟镇涛/太极乐队 - 恭喜你
TTITLE7=钟镇涛/林志颖 - 恭喜、恭喜
TTITLE8=吴奇隆 - 新春报喜
TTITLE9=马浚伟/黎姿 - 春风报喜 
EXTD=
EXTT0=
EXTT1=
EXTT2=
EXTT3=
EXTT4=
EXTT5=
EXTT6=
EXTT7=
EXTT8=
EXTT9=
PLAYORDER=
